<svg xmlns="http://www.w3.org/2000/svg" data-name="Layer 2" viewBox="0 0 174.36 22.33"><path d="M65.41.25h3.77v10.32c0 4.37-3.54 7.91-7.91 7.91s-7.91-3.54-7.91-7.91V.25h3.77v10.32c0 2.29 1.85 4.14 4.14 4.14s4.14-1.86 4.14-4.14V.25Zm18.43 17.99h3.77V.25h-3.77v17.99ZM3.77 11.03h7.63V7.45H3.77V3.82h7.9V.24H0v17.99h11.93v-3.58H3.77v-3.63Zm32.38 6.89c.85 1 3.39 1.58 5.69 1.23l-3.09 3.18c-3.64 0-7.2-2.89-8.07-4.14a9.24 9.24 0 0 1-6.94-8.95c0-5.1 4.14-9.24 9.24-9.24s9.24 4.14 9.24 9.24a9.24 9.24 0 0 1-6.06 8.68Zm2.29-8.68c0-3.02-2.45-5.47-5.47-5.47S27.5 6.22 27.5 9.24s2.45 5.47 5.47 5.47 5.47-2.45 5.47-5.47ZM167.5 8.9l6.36-8.66h-4.68l-4.02 5.47-4.02-5.47h-4.68l6.36 8.66-6.86 9.34h4.68l4.52-6.16 4.52 6.16h4.68L167.5 8.9Zm-25.36-3.16c.79.95 1.26 2.17 1.26 3.5 0 3.02-2.45 5.47-5.47 5.47-.7 0-1.37-.13-1.99-.37l-2.25 3.11c1.27.65 2.71 1.03 4.23 1.03 5.1 0 9.24-4.14 9.24-9.24 0-2.59-1.07-4.93-2.79-6.61l-2.25 3.11h.02Zm-28.21 5.72L105.31.24h-3.62v17.99h3.77V6.61l8.92 11.61h3.32V.23h-3.77v11.22Zm18.53-2.22c0-3.02 2.45-5.47 5.47-5.47.72 0 1.41.14 2.04.4l2.24-3.11a9.215 9.215 0 0 0-4.28-1.05c-5.1 0-9.24 4.14-9.24 9.24 0 2.61 1.09 4.97 2.83 6.65l2.24-3.11c-.81-.95-1.3-2.19-1.3-3.54Z" data-name="Layer 1" style="fill:#2d2a26;stroke-width:0"/></svg>