<svg xmlns="http://www.w3.org/2000/svg" viewBox="0 0 1440 720"><title>sg_logo_Stacked_black</title><g id="sg_logo_Stacked_Black"><path d="M1233.27,279.62h-.69l-20.06-172.54h-86.06l-48.72,262.17h3.09a98.8,98.8,0,0,0-37.81,47c-1.39-3.52-2.45-7.14-4.32-10.53-9.38-18.43-22.68-29.86-37.16-37a116.3,116.3,0,0,0,42.52-22.78c19.74-17.06,33-36.59,41.12-80.45l29.4-158.39h-66.94l-29.42,158.39c-3.84,20.94-9.31,50-42.57,50-32.88,0-28-32.25-24.65-50l29.39-158.39h-67L884,265.47c-7.22,38.56-6,57,11.18,80.79,3.24,4.35,7.41,7.41,11.62,10.6h-53l46.42-249.78h-67L784.77,367.47a124.11,124.11,0,0,0-61.42-15.64c-1,0-1.8.28-2.72.28,46.38-22.72,71.55-65.83,80.62-114.67,5.3-28.68,4.49-56.7-9-81.54-25-48.82-77.4-48.82-106.81-48.82H598.66l-38.39,206.6-43.69-206.6H463.77L326.4,341.1l32.51-175.27h52.44l33.59-58.75H249.22L238.3,165.83H292l-35.16,189.4a125.52,125.52,0,0,0-50.36-10.54c-3.8,0-7.51.69-11.32,1,1.46-.94,3-1.62,4.42-2.72,23.33-17.4,33.59-43.72,37.63-69.35,6.58-41.63-18-59.79-52.25-70.33l-16.33-5.11c-11-3.8-28.15-9.58-25.76-24.61,2.27-14.35,19.81-21.49,32.09-21.49,20.1-.75,36.25,2.45,46.93,12.65l11-52.71a117.47,117.47,0,0,0-58.56-16c-51.65,0-94.26,34.21-102.59,86.5-7.92,49.84,18,60.73,58.15,72.69,13.7,4.09,39,10.63,36,29.39C163,302.67,145,310.49,129.25,310.49c-22.88,0-40.73-11.84-55.19-26.67l-37.2,53.94a137.77,137.77,0,0,0,85.79,29.44c.28,0,.51-.06.79-.06C82.09,390.74,50.16,431,41.08,479.68c-14,75.43,34.38,137.44,113.74,137.44,59.09,0,120.68-35.42,150.53-95.88,4.19,54.61,45.16,100.85,114.39,100.85,59.2,0,111.57-33.46,141.15-79.63C572.31,588.21,611.55,624,672.45,624c56.48,0,106.47-30.53,136.66-73.39L796.43,619h91.73c99.16,0,145.74-59.78,159.24-130.91,10.48,10.81,27.17,16.79,47.53,22.85,13.7,4.08,39,10.54,36,29.38-3,18.08-20.93,25.92-36.62,25.92-21.18,0-38.15-11.09-52-24.28-10.68,22.44-18.51,31.07-34.56,46.64,22.76,16.93,49.09,34.34,79.93,34.34,25.89,0,54.12-7.21,76.91-24.2,23.29-17.42,33.59-43.74,37.63-69.37,6.59-41.69-18-59.78-52.28-70.31l-16.31-5.25c-11-3.67-28.1-9.45-25.76-24.48,2.28-14.36,19.85-21.5,32.12-21.5a60.17,60.17,0,0,1,41.7,17l34.88-51.83c-2.23-1.43-5-2.51-7.41-3.8h29l92.56-197,.55.68L1292.8,369.25h61.61l48.73-262.17h-86.46ZM654.77,165.83h29c29.79,0,40.91,12.45,46.52,24.23,6.83,14.81,6.49,33.58,3.77,48.41-6.94,37.2-27.57,72-77.46,72H627.8ZM474.52,188.62h1.05l10.31,89.57H431ZM327.28,433.25a164.89,164.89,0,0,0-13.63,29.43h-146l-10,53.46H236c-11.84,25.5-37.3,42.16-70.62,42.16-33,0-67.5-23.73-57.3-78.62,9.62-51.74,52.77-76.22,85.69-76.22,28.39,0,44.57,15.63,51.47,34.06h75.09c-2.69-26.92-17.21-51.2-39.38-68.27H381.83l20.91-37.88h91L497,352.64A137.37,137.37,0,0,0,470.68,350C397.3,350,347.45,399.24,327.28,433.25Zm189.57,53.16c-6.22,33.68-37.3,76.87-84.77,76.87-45,0-65.28-37.55-57.74-77.87,6.81-36.93,39.31-76.59,85.76-76.59C508.24,408.82,523.18,452.35,516.85,486.41Zm65.6-54.94A103.58,103.58,0,0,0,538,369.25H641.74c4.12,0,7.59-.68,11.5-.89A179.37,179.37,0,0,0,582.45,431.47Zm187.22,56.85c-6.35,33.66-37.31,76.84-84.85,76.84-45,0-65.31-37.45-57.76-77.92,6.87-36.87,39.34-76.58,85.75-76.58C761,410.66,775.92,454.26,769.67,488.32Zm18-119.07h55.26l-10.45,56.1A102.78,102.78,0,0,0,787.62,369.25ZM980.48,488.32c-6.94,37.2-27.57,71.89-77.44,71.89H874.36l26.8-144.52h29c29.79,0,40.94,12.38,46.55,24.07C983.58,454.66,983.24,473.44,980.48,488.32ZM1142.41,352,1173.69,173l.88-.68,18.69,189.82A161.59,161.59,0,0,0,1142.41,352Z"/><path d="M1199.5,430.21a46.21,46.21,0,1,1,46.21,46.21A46,46,0,0,1,1199.5,430.21Zm81.45,0c0-20.76-15.39-35.46-35.24-35.46-20.18,0-35.25,14.7-35.25,35.46,0,20.53,15.07,35.25,35.25,35.25C1265.56,465.46,1281,450.74,1281,430.21Zm-13.06,23.46h-11.65l-10.75-20.3H1238v20.3h-10.74V405.6h23.35c11.07,0,18.68,2,18.68,14.7,0,8.87-4.59,12.5-13.06,13.07Zm-17.05-27.54c5.4,0,8.42-1.15,8.42-7.25,0-4.86-6.2-4.86-10.85-4.86H1238v12.11Z"/></g></svg>